<svg width="31" height="31" viewBox="0 0 31 31" fill="none" xmlns="http://www.w3.org/2000/svg">
<path d="M9.03526 24.5307C7.36694 24.5307 6.00221 25.8954 6.00221 27.5638C6.00221 29.2322 7.36694 30.5969 9.03526 30.5969C10.7036 30.5969 12.0684 29.2322 12.0684 27.5638C12.0683 25.8954 10.7035 24.5307 9.03526 24.5307ZM0.169434 0.732979V3.76602H3.20248L8.66218 14.8251L6.37952 18.5402C6.15219 18.9193 6.00039 19.4502 6.00039 19.9812C6.00039 22.0118 7.3875 23.0143 9.26857 23.0143H27.0002V20.0979H9.6399C9.41257 20.0979 9.26077 19.9461 9.26077 19.7188C9.26077 19.6432 9.42168 19.3396 9.42168 19.3396L10.9369 16.9482H22.2346C23.372 16.9482 24.3583 16.3418 24.8885 15.3561L30.3481 5.96535C30.4383 5.78592 30.4999 5.50995 30.4999 5.20716C30.4999 4.37263 29.8172 3.7661 28.9834 3.7661H6.53912L5.09813 0.732979H0.169434ZM23.9671 24.5307C22.2988 24.5307 20.9341 25.8954 20.9341 27.5638C20.9341 29.2322 22.2988 30.5969 23.9671 30.5969C25.6354 30.5969 27.0002 29.2321 27.0002 27.5638C27.0002 25.8954 25.6354 24.5307 23.9671 24.5307Z" fill="#003F49"/>
</svg>
